<svg width="48" height="34" viewBox="0 0 48 34" fill="none" xmlns="http://www.w3.org/2000/svg">
<path fill-rule="evenodd" clip-rule="evenodd" d="M14.6667 0.666748C16.5625 0.66663 18.4135 1.24386 19.9731 2.32163C21.5328 3.3994 22.7273 4.92659 23.3977 6.69998C24.068 8.47336 24.1824 10.4088 23.7256 12.2488C23.2688 14.0888 22.2626 15.7461 20.8407 17.0001C22.2626 18.2541 23.2688 19.9113 23.7256 21.7513C24.1824 23.5913 24.068 25.5268 23.3977 27.3002C22.7273 29.0736 21.5328 30.6008 19.9731 31.6785C18.4135 32.7563 16.5625 33.3335 14.6667 33.3334H5.33334C4.09566 33.3334 2.90868 32.8417 2.03351 31.9666C1.15834 31.0914 0.666672 29.9044 0.666672 28.6667V5.33341C0.666672 4.09574 1.15834 2.90875 2.03351 2.03358C2.90868 1.15841 4.09566 0.666748 5.33334 0.666748H14.6667ZM36.8333 10.0001C42.9163 10.0001 47.3333 15.5254 47.3333 21.6667C47.3333 22.2383 47.1234 22.7899 46.7437 23.2169C46.3639 23.644 45.8406 23.9169 45.273 23.9837L45 24.0001H31.3267C32.162 26.8561 34.4837 28.6667 36.8333 28.6667C39.3533 28.6667 40.7813 27.4744 42.06 25.9834C42.4622 25.5131 43.0349 25.2218 43.6518 25.1737C44.2688 25.1256 44.8797 25.3245 45.35 25.7267C45.8203 26.129 46.1116 26.7016 46.1597 27.3186C46.2079 27.9356 46.0089 28.5464 45.6067 29.0167L45.357 29.3014L44.8227 29.8754C43.138 31.6067 40.674 33.3334 36.8333 33.3334C30.7503 33.3334 26.3333 27.8081 26.3333 21.6667C26.3333 15.5254 30.7503 10.0001 36.8333 10.0001ZM14.6667 19.3334H5.33334V28.6667H14.6667C15.8776 28.6722 17.0433 28.2066 17.9174 27.3685C18.7914 26.5304 19.3055 25.3853 19.3509 24.1752C19.3964 22.9651 18.9696 21.7847 18.1609 20.8834C17.3521 19.9821 16.2246 19.4305 15.0167 19.3451L14.6667 19.3334ZM36.8333 14.6667C34.4837 14.6667 32.162 16.4774 31.3267 19.3334H42.34C41.5047 16.4774 39.183 14.6667 36.8333 14.6667ZM14.6667 5.33341H5.33334V14.6667H14.6667C15.9043 14.6667 17.0913 14.1751 17.9665 13.2999C18.8417 12.4247 19.3333 11.2378 19.3333 10.0001C19.3333 8.7624 18.8417 7.57542 17.9665 6.70025C17.0913 5.82508 15.9043 5.33341 14.6667 5.33341ZM40.3333 3.00008C40.9522 3.00008 41.5457 3.24591 41.9833 3.6835C42.4208 4.12108 42.6667 4.71458 42.6667 5.33341C42.6667 5.95225 42.4208 6.54574 41.9833 6.98333C41.5457 7.42091 40.9522 7.66675 40.3333 7.66675H33.3333C32.7145 7.66675 32.121 7.42091 31.6834 6.98333C31.2458 6.54574 31 5.95225 31 5.33341C31 4.71458 31.2458 4.12108 31.6834 3.6835C32.121 3.24591 32.7145 3.00008 33.3333 3.00008H40.3333Z" fill="white"/>
</svg>
