<svg width="48" height="48" viewBox="0 0 48 48" fill="none" xmlns="http://www.w3.org/2000/svg">
<path d="M26.3987 0.666748C29.0237 0.673748 30.356 0.687748 31.5063 0.720415L31.959 0.736748C32.4817 0.755415 32.9973 0.778748 33.6203 0.806748C36.103 0.923415 37.797 1.31541 39.2833 1.89175C40.8233 2.48441 42.1207 3.28708 43.418 4.58208C44.605 5.74812 45.5231 7.15918 46.1083 8.71675C46.6847 10.2031 47.0767 11.8971 47.1933 14.3821C47.2213 15.0027 47.2447 15.5184 47.2633 16.0434L47.2773 16.4961C47.3123 17.6441 47.3263 18.9764 47.331 21.6014L47.3333 23.3421V26.3987C47.339 28.1007 47.3211 29.8026 47.2797 31.5041L47.2657 31.9567C47.247 32.4817 47.2237 32.9974 47.1957 33.6181C47.079 36.1031 46.6823 37.7947 46.1083 39.2834C45.5231 40.841 44.605 42.252 43.418 43.4181C42.252 44.605 40.8409 45.5232 39.2833 46.1084C37.797 46.6847 36.103 47.0767 33.6203 47.1934L31.959 47.2634L31.5063 47.2774C30.356 47.3101 29.0237 47.3264 26.3987 47.3311L24.658 47.3334H21.6037C19.9009 47.3394 18.1982 47.3215 16.496 47.2797L16.0433 47.2657C15.4894 47.2448 14.9356 47.2207 14.382 47.1934C11.8993 47.0767 10.2053 46.6847 8.71667 46.1084C7.15994 45.5229 5.7497 44.6048 4.58434 43.4181C3.39654 42.2523 2.47759 40.8412 1.89167 39.2834C1.31534 37.7971 0.923338 36.1031 0.806671 33.6181L0.736671 31.9567L0.725005 31.5041C0.681992 29.8027 0.662546 28.1007 0.666671 26.3987V21.6014C0.660213 19.8995 0.677326 18.1975 0.718005 16.4961L0.734338 16.0434C0.753005 15.5184 0.776338 15.0027 0.804338 14.3821C0.921005 11.8971 1.313 10.2054 1.88934 8.71675C2.47662 7.15854 3.39719 5.74743 4.58667 4.58208C5.75136 3.3957 7.16078 2.47759 8.71667 1.89175C10.2053 1.31541 11.897 0.923415 14.382 0.806748C15.0027 0.778748 15.5207 0.755415 16.0433 0.736748L16.496 0.722748C18.1975 0.681291 19.8994 0.6634 21.6013 0.669081L26.3987 0.666748ZM24 12.3334C20.9058 12.3334 17.9383 13.5626 15.7504 15.7505C13.5625 17.9384 12.3333 20.9059 12.3333 24.0001C12.3333 27.0943 13.5625 30.0617 15.7504 32.2497C17.9383 34.4376 20.9058 35.6667 24 35.6667C27.0942 35.6667 30.0617 34.4376 32.2496 32.2497C34.4375 30.0617 35.6667 27.0943 35.6667 24.0001C35.6667 20.9059 34.4375 17.9384 32.2496 15.7505C30.0617 13.5626 27.0942 12.3334 24 12.3334ZM24 17.0001C24.9193 16.9999 25.8295 17.1808 26.6789 17.5325C27.5282 17.8841 28.3 18.3996 28.9501 19.0495C29.6002 19.6994 30.116 20.471 30.4679 21.3202C30.8198 22.1694 31.001 23.0797 31.0012 23.9989C31.0013 24.9182 30.8204 25.8284 30.4688 26.6778C30.1171 27.5271 29.6016 28.2989 28.9517 28.949C28.3018 29.5991 27.5303 30.1149 26.681 30.4668C25.8318 30.8187 24.9216 30.9999 24.0023 31.0001C22.1458 31.0001 20.3653 30.2626 19.0526 28.9498C17.7398 27.6371 17.0023 25.8566 17.0023 24.0001C17.0023 22.1436 17.7398 20.3631 19.0526 19.0503C20.3653 17.7376 22.1458 17.0001 24.0023 17.0001M36.2523 8.83341C35.4788 8.83341 34.7369 9.14071 34.1899 9.68769C33.643 10.2347 33.3357 10.9765 33.3357 11.7501C33.3357 12.5236 33.643 13.2655 34.1899 13.8125C34.7369 14.3595 35.4788 14.6667 36.2523 14.6667C37.0259 14.6667 37.7677 14.3595 38.3147 13.8125C38.8617 13.2655 39.169 12.5236 39.169 11.7501C39.169 10.9765 38.8617 10.2347 38.3147 9.68769C37.7677 9.14071 37.0259 8.83341 36.2523 8.83341Z" fill="white"/>
</svg>
