<svg width="10" height="13" viewBox="0 0 10 13" fill="none" xmlns="http://www.w3.org/2000/svg">
<path d="M5.00002 6.1875C4.61325 6.1875 4.24231 6.02288 3.96882 5.72985C3.69533 5.43683 3.54169 5.0394 3.54169 4.625C3.54169 4.2106 3.69533 3.81317 3.96882 3.52015C4.24231 3.22712 4.61325 3.0625 5.00002 3.0625C5.38679 3.0625 5.75773 3.22712 6.03122 3.52015C6.30471 3.81317 6.45835 4.2106 6.45835 4.625C6.45835 4.83019 6.42063 5.03337 6.34734 5.22294C6.27406 5.41251 6.16664 5.58476 6.03122 5.72985C5.8958 5.87495 5.73503 5.99004 5.5581 6.06856C5.38117 6.14709 5.19153 6.1875 5.00002 6.1875ZM5.00002 0.25C3.91705 0.25 2.87844 0.710936 2.11267 1.53141C1.34689 2.35188 0.916687 3.46468 0.916687 4.625C0.916687 7.90625 5.00002 12.75 5.00002 12.75C5.00002 12.75 9.08335 7.90625 9.08335 4.625C9.08335 3.46468 8.65315 2.35188 7.88737 1.53141C7.1216 0.710936 6.08299 0.25 5.00002 0.25Z" fill="#800020"/>
</svg>
